<svg viewBox="0 0 482.14 482.14" xmlns="http://www.w3.org/2000/svg"><path d="M142.024 310.194c0-8.007-5.556-12.782-15.36-12.782-4.002 0-6.713.395-8.13.773v25.69c1.678.378 3.742.504 6.587.504 10.45 0 16.91-5.28 16.91-14.19zm60.686-12.514c-4.39 0-7.228.38-8.906.773v56.896c1.68.39 4.39.39 6.84.39 17.81.123 29.425-9.68 29.425-30.45.12-18.06-10.46-27.61-27.36-27.61z"/><path d="M315.458 0H121.81C93.52 0 70.497 23.04 70.497 51.315V241.07h-5.012c-11.418 0-20.678 9.25-20.678 20.678v125.404c0 11.427 9.26 20.677 20.678 20.677h5.012v22.99c0 28.303 23.025 51.313 51.315 51.313h264.224c28.272 0 51.3-23.012 51.3-51.316V121.45L315.458 0zM99.053 284.38c6.06-1.025 14.578-1.797 26.58-1.797 12.127 0 20.77 2.315 26.58 6.965 5.547 4.382 9.29 11.615 9.29 20.127 0 8.51-2.836 15.745-7.998 20.646-6.714 6.32-16.643 9.16-28.258 9.16-2.585 0-4.902-.13-6.714-.38v31.1h-19.48v-85.82zm286.98 166.333h-264.22c-10.954 0-19.874-8.92-19.874-19.89V407.83h246.31c11.42 0 20.68-9.25 20.68-20.678V261.748c0-11.428-9.26-20.68-20.68-20.68H101.94V51.316c0-10.938 8.92-19.858 19.873-19.858l181.89-.19V98.5c0 19.638 15.935 35.587 35.588 35.587l65.868-.19.74 296.926c0 10.97-8.903 19.89-19.856 19.89zM174.066 369.8v-85.42c7.225-1.15 16.642-1.797 26.58-1.797 16.516 0 27.226 2.963 35.618 9.282 9.03 6.714 14.704 17.416 14.704 32.78 0 16.644-6.06 28.134-14.453 35.225-9.157 7.612-23.096 11.222-40.125 11.222-10.2 0-17.424-.646-22.325-1.29zm140.827-50.574v15.996h-31.23v34.973h-19.74V283.23h53.16v16.12h-33.42v19.876h31.23z"/></svg>