<svg style="display: none;">
	<defs>
		<!-- close icon -->
		<symbol id="icon_close">
			<defs>
				<rect id="SVGID_close_1_" width="32" height="32"/>
			</defs>
			<clipPath id="SVGID_close_2_">
				<use xlink:href="#SVGID_close_1_"  overflow="visible"/>
			</clipPath>
			<path clip-path="url(#SVGID_close_2_)" fill="#FFFFFF" d="M21.717,10.283c-0.394-0.393-1.032-0.393-1.425,0l-4.298,4.297l-4.236-4.236
			c-0.391-0.391-1.025-0.391-1.414,0c-0.391,0.389-0.391,1.023,0,1.414l4.236,4.236l-4.266,4.267c-0.393,0.394-0.393,1.031,0,1.425
			c0.394,0.394,1.032,0.394,1.426,0l4.266-4.266l4.236,4.237c0.391,0.391,1.024,0.391,1.415,0s0.391-1.024,0-1.415l-4.237-4.236
			l4.297-4.298C22.11,11.314,22.11,10.677,21.717,10.283 M16,0C7.163,0,0,7.164,0,16c0,8.837,7.163,16,16,16s16-7.163,16-16
			C32,7.164,24.837,0,16,0 M16,30C8.268,30,2,23.732,2,16C2,8.269,8.268,2,16,2c7.732,0,14,6.269,14,14C30,23.732,23.732,30,16,30"/>
		</symbol>
		<!-- menu icon -->
		<symbol id='icon_menu' fill="#fff">
			<rect width="30" height="4"/>
			<rect y="8" width="30" height="4"/>
			<rect y="16" width="30" height="4"/>
		</symbol>
		<!-- scroll icon -->
		<symbol id="icon_scroll">
			<defs>
				<rect id="SVGID_scroll_1_" x="-0.488" y="0.489" width="24.006" height="23.026"/>
			</defs>
			<clipPath id="SVGID_scroll_2_">
				<use xlink:href="#SVGID_scroll_1_"  overflow="visible"/>
			</clipPath>
			<path clip-path="url(#SVGID_scroll_2_)" fill="#FFFFFF" d="M12.301,23.231l10.922-10.938c0.394-0.394,0.394-1.032,0-1.426
			c-0.395-0.395-1.031-0.395-1.424,0L11.514,21.167L1.23,10.867c-0.395-0.395-1.03-0.395-1.425,0c-0.393,0.394-0.393,1.032,0,1.426
			l10.921,10.938c0.217,0.216,0.505,0.302,0.787,0.281C11.797,23.533,12.085,23.447,12.301,23.231 M11.514,11.413
			c0.283,0.021,0.571-0.064,0.787-0.28l8.908-8.923c0.393-0.394,0.393-1.031,0-1.426c-0.393-0.394-1.031-0.394-1.424,0l-8.271,8.285
			L3.243,0.784c-0.393-0.394-1.031-0.394-1.423,0c-0.395,0.395-0.395,1.032,0,1.426l8.906,8.923
			C10.943,11.349,11.231,11.434,11.514,11.413"/>
		</symbol>
		<!-- main logo -->
		<symbol id="icon_logo">
			<defs>
				<rect id="SVGID_1_" width="113.427" height="19.818"/>
			</defs>
			<clipPath id="SVGID_2_">
				<use xlink:href="#SVGID_1_"  overflow="visible"/>
			</clipPath>
			<path clip-path="url(#SVGID_2_)" fill-rule="evenodd" clip-rule="evenodd" fill="#FFFFFF" d="M9.183,7.036
			c0.536,0.405,0.886,1.046,0.886,1.77c0-0.724,0.35-1.365,0.887-1.77c0.366-0.276,0.608-0.71,0.608-1.204
			c0-0.826-0.669-1.495-1.495-1.495S8.573,5.006,8.573,5.832C8.573,6.326,8.815,6.76,9.183,7.036 M11.472,7.251
			c0.094,0.666-0.112,1.366-0.624,1.878c0.512-0.512,1.213-0.718,1.878-0.624c0.454,0.063,0.933-0.072,1.282-0.421
			c0.584-0.584,0.584-1.531,0-2.115s-1.53-0.584-2.114,0C11.544,6.318,11.409,6.797,11.472,7.251 M14.146,8.414
			c-0.494,0-0.928,0.242-1.204,0.609c-0.405,0.536-1.046,0.886-1.77,0.886c0.724,0,1.365,0.35,1.77,0.887
			c0.276,0.366,0.71,0.608,1.204,0.608c0.826,0,1.495-0.669,1.495-1.495C15.641,9.083,14.971,8.414,14.146,8.414 M12.727,11.314
			c-0.665,0.093-1.366-0.113-1.878-0.625c0.512,0.512,0.718,1.213,0.624,1.878c-0.063,0.455,0.072,0.933,0.422,1.282
			c0.584,0.584,1.53,0.584,2.114,0s0.584-1.53,0-2.114C13.659,11.385,13.18,11.25,12.727,11.314 M8.665,12.567
			c-0.094-0.665,0.112-1.366,0.624-1.878c-0.512,0.512-1.212,0.718-1.878,0.625c-0.454-0.064-0.933,0.071-1.282,0.421
			c-0.584,0.584-0.584,1.53,0,2.114s1.531,0.584,2.114,0C8.592,13.5,8.728,13.022,8.665,12.567 M7.195,10.796
			c0.405-0.537,1.046-0.887,1.77-0.887c-0.724,0-1.365-0.35-1.77-0.886c-0.276-0.367-0.71-0.609-1.204-0.609
			c-0.826,0-1.495,0.669-1.495,1.495c0,0.826,0.669,1.495,1.495,1.495C6.485,11.404,6.919,11.162,7.195,10.796 M7.41,8.505
			c0.666-0.094,1.366,0.112,1.878,0.624C8.776,8.617,8.57,7.917,8.665,7.251c0.063-0.454-0.072-0.933-0.421-1.282
			c-0.584-0.584-1.531-0.584-2.115,0s-0.584,1.531,0,2.115C6.478,8.433,6.957,8.568,7.41,8.505 M15.836,2.241l0.339,1.861
			c0.085,0.467,0.378,0.829,0.817,1.01l1.771,0.73c0.373,0.154,0.634,0.432,0.765,0.813c0.131,0.382,0.096,0.762-0.104,1.112
			l-0.936,1.644c-0.235,0.413-0.244,0.878-0.024,1.299l0.887,1.697c0.187,0.358,0.209,0.739,0.064,1.115
			c-0.145,0.377-0.416,0.645-0.794,0.785l-1.774,0.657c-0.446,0.164-0.751,0.516-0.853,0.979l-0.412,1.871
			c-0.086,0.394-0.314,0.699-0.668,0.895c-0.32,0.178-0.664,0.22-1.009,0.123c-0.028-0.008-0.051-0.017-0.076-0.03
			c-1.803-1.021-1.785-1.01-2.572-1.508c-0.005-0.003-0.009-0.005-0.013-0.008c-0.488-0.358-0.698-0.77-0.718-1.295
			c0-0.002,0-0.003,0-0.005V12.54c0-0.268-0.219-0.486-0.487-0.486s-0.488,0.219-0.488,0.486V16c0,0.001,0,0.002,0,0.003
			c0.021,0.959,0.309,1.484,0.843,1.894c0.044,0.035,0.086,0.065,0.127,0.097c0.088,0.065,0.135,0.158,0.136,0.267
			s-0.045,0.202-0.131,0.269l-1.307,1.006c-0.32,0.247-0.691,0.334-1.087,0.257c-0.396-0.076-0.707-0.298-0.91-0.646l-0.956-1.633
			c-0.24-0.41-0.638-0.65-1.113-0.67l-1.914-0.081c-0.403-0.018-0.743-0.188-0.997-0.502c-0.254-0.314-0.35-0.683-0.282-1.08
			l0.317-1.865c0.08-0.468-0.071-0.908-0.422-1.229l-1.414-1.291C0.144,10.521-0.008,10.171,0,9.768
			C0.007,9.364,0.17,9.02,0.479,8.759L1.92,7.534c0.362-0.307,0.529-0.741,0.466-1.213L2.133,4.423
			c-0.053-0.4,0.057-0.765,0.322-1.069C2.72,3.049,3.066,2.89,3.47,2.888l1.891-0.011c0.475-0.003,0.883-0.228,1.137-0.629
			l1.027-1.617c0.216-0.341,0.535-0.55,0.933-0.613c0.399-0.062,0.766,0.038,1.077,0.296l1.456,1.208
			c0.366,0.303,0.823,0.392,1.276,0.248l1.825-0.578c0.385-0.122,0.763-0.078,1.109,0.13C15.547,1.53,15.764,1.844,15.836,2.241"/>

			<rect x="26.016" y="1.169" clip-path="url(#SVGID_2_)" fill-rule="evenodd" clip-rule="evenodd" fill="#FFFFFF" width="1" height="17.481"/>
			<rect x="30.229" y="7.926" clip-path="url(#SVGID_2_)" fill="#FFFFFF" width="0.818" height="4.987"/>
			<polygon clip-path="url(#SVGID_2_)" fill="#FFFFFF" points="35.526,11.661 35.526,7.926 36.345,7.926 36.345,12.913 35.553,12.913 
			33.41,10.307 32.539,9.214 32.477,9.214 32.477,12.913 31.659,12.913 31.659,7.926 32.432,7.926 34.646,10.626 35.464,11.661 	"/>
			<polygon clip-path="url(#SVGID_2_)" fill="#FFFFFF" points="39.616,8.541 39.616,12.914 38.78,12.914 38.78,8.541 37.011,8.541 
			37.011,7.926 41.377,7.926 41.377,8.541 	"/>
			<polygon clip-path="url(#SVGID_2_)" fill="#FFFFFF" points="42.053,12.913 42.053,7.926 46.143,7.926 46.143,8.534 42.87,8.534 
			42.87,10.119 45.672,10.119 45.672,10.72 42.87,10.72 42.87,12.312 46.143,12.312 46.143,12.913 	"/>
			<path clip-path="url(#SVGID_2_)" fill="#FFFFFF" d="M49.513,7.926c0.308,0,0.572,0.045,0.792,0.134
			c0.219,0.089,0.4,0.205,0.542,0.347c0.142,0.142,0.246,0.302,0.311,0.478c0.065,0.176,0.097,0.354,0.097,0.532
			c0,0.14-0.022,0.278-0.07,0.416c-0.048,0.138-0.119,0.267-0.214,0.387c-0.094,0.121-0.208,0.231-0.342,0.33
			c-0.133,0.099-0.287,0.177-0.458,0.235l1.147,2.128h-0.907l-1.04-2.006h-1.583v2.006H46.97V7.926H49.513z M50.438,9.417
			c0-0.27-0.102-0.485-0.307-0.645c-0.204-0.159-0.467-0.238-0.787-0.238h-1.556v1.759h1.556c0.32,0,0.583-0.078,0.787-0.232
			C50.336,9.906,50.438,9.692,50.438,9.417"/>
			<polygon clip-path="url(#SVGID_2_)" fill="#FFFFFF" points="55.355,9.12 54.893,10.683 54.182,12.914 53.257,12.914 51.639,7.925 
			52.527,7.925 53.221,10.22 53.701,11.871 53.745,11.871 54.235,10.213 54.946,7.925 55.809,7.925 56.538,10.285 57.009,11.871 
			57.054,11.871 57.516,10.263 58.227,7.925 59.116,7.925 57.498,12.914 56.573,12.914 55.853,10.654 55.408,9.12 	"/>
			<path clip-path="url(#SVGID_2_)" fill="#FFFFFF" d="M74.846,11.292c0,0.241-0.056,0.462-0.165,0.662s-0.26,0.372-0.447,0.514
			c-0.19,0.144-0.413,0.252-0.668,0.33c-0.255,0.077-0.528,0.115-0.817,0.115h-2.295V7.925h2.303c0.29,0,0.564,0.038,0.819,0.112
			c0.254,0.076,0.476,0.183,0.666,0.323c0.189,0.14,0.338,0.311,0.445,0.514c0.106,0.202,0.159,0.429,0.159,0.68V11.292z
			M74.01,9.672c0-0.208-0.041-0.384-0.125-0.529c-0.082-0.145-0.191-0.264-0.329-0.356C73.42,8.696,73.264,8.63,73.09,8.591
			c-0.175-0.038-0.352-0.057-0.528-0.057h-1.29v3.792h1.29c0.165,0,0.336-0.02,0.511-0.059s0.33-0.104,0.467-0.195
			c0.136-0.091,0.248-0.209,0.338-0.353c0.089-0.142,0.133-0.319,0.133-0.532V9.672z"/>
			<polygon clip-path="url(#SVGID_2_)" fill="#FFFFFF" points="76.704,10.517 79.3,7.926 80.287,7.926 78.314,9.895 80.492,12.914 
			79.532,12.914 77.762,10.445 76.643,11.53 76.643,12.914 75.824,12.914 75.824,7.926 76.643,7.926 76.643,10.517 	"/>
			<polygon clip-path="url(#SVGID_2_)" fill="#FFFFFF" points="89.216,11.285 89.971,9.959 91.188,7.926 91.945,7.926 91.945,12.913 
			91.127,12.913 91.127,9.519 91.083,9.519 90.522,10.48 89.492,12.174 88.877,12.174 87.898,10.619 87.232,9.519 87.188,9.519 
			87.188,12.913 86.37,12.913 86.37,7.926 87.152,7.926 88.389,9.959 89.162,11.285 	"/>
			<polygon clip-path="url(#SVGID_2_)" fill="#FFFFFF" points="95.813,11.285 96.568,9.959 97.786,7.926 98.543,7.926 98.543,12.913 
			97.724,12.913 97.724,9.519 97.68,9.519 97.12,10.48 96.089,12.174 95.474,12.174 94.496,10.619 93.83,9.519 93.785,9.519 
			93.785,12.913 92.967,12.913 92.967,7.926 93.75,7.926 94.986,9.959 95.759,11.285 	"/>
			<polygon clip-path="url(#SVGID_2_)" fill="#FFFFFF" points="99.592,12.913 99.592,7.926 103.682,7.926 103.682,8.534 
			100.408,8.534 100.408,10.119 103.21,10.119 103.21,10.72 100.408,10.72 100.408,12.312 103.682,12.312 103.682,12.913 	"/>
			<path clip-path="url(#SVGID_2_)" fill="#FFFFFF" d="M107.051,7.926c0.309,0,0.572,0.045,0.792,0.134
			c0.22,0.089,0.4,0.205,0.542,0.347c0.143,0.142,0.246,0.302,0.312,0.478c0.064,0.176,0.097,0.354,0.097,0.532
			c0,0.14-0.021,0.278-0.069,0.416c-0.049,0.138-0.119,0.267-0.215,0.387c-0.094,0.121-0.208,0.231-0.342,0.33
			c-0.133,0.099-0.287,0.177-0.458,0.235l1.147,2.128h-0.907l-1.04-2.006h-1.583v2.006h-0.818V7.926H107.051z M107.977,9.417
			c0-0.27-0.103-0.485-0.308-0.645c-0.204-0.159-0.467-0.238-0.787-0.238h-1.556v1.759h1.556c0.32,0,0.583-0.078,0.787-0.232
			C107.874,9.906,107.977,9.692,107.977,9.417"/>
			<polygon clip-path="url(#SVGID_2_)" fill="#FFFFFF" points="113.427,8.498 110.368,12.312 113.418,12.312 113.418,12.913 
			109.416,12.913 109.416,12.327 112.439,8.534 109.541,8.534 109.541,7.926 113.427,7.926 	"/>
			<path clip-path="url(#SVGID_2_)" fill="#FFFFFF" d="M64.221,8.751c-0.076-0.171-0.182-0.322-0.313-0.453
			c-0.133-0.132-0.284-0.235-0.455-0.31c-0.172-0.073-0.352-0.111-0.543-0.113h-2.141c-0.197,0.002-0.382,0.04-0.554,0.113
			c-0.173,0.074-0.324,0.177-0.453,0.306c-0.131,0.131-0.234,0.282-0.308,0.455c-0.073,0.171-0.111,0.356-0.112,0.554v2.141
			c0.001,0.2,0.038,0.385,0.11,0.557c0.073,0.173,0.175,0.323,0.306,0.454s0.281,0.232,0.453,0.306
			c0.173,0.072,0.357,0.109,0.558,0.11h2.141c0.198-0.001,0.383-0.039,0.556-0.112c0.172-0.073,0.322-0.177,0.453-0.307
			s0.232-0.281,0.307-0.454c0.073-0.172,0.111-0.356,0.112-0.554V9.303C64.336,9.107,64.297,8.923,64.221,8.751 M63.623,11.444
			c-0.001,0.132-0.034,0.252-0.098,0.359c-0.064,0.106-0.148,0.192-0.257,0.257c-0.107,0.063-0.228,0.097-0.359,0.098h-2.141
			c-0.132-0.001-0.252-0.035-0.359-0.098c-0.106-0.064-0.192-0.15-0.257-0.257c-0.063-0.107-0.096-0.228-0.098-0.359V9.303
			c0.002-0.132,0.035-0.252,0.098-0.359c0.064-0.109,0.15-0.193,0.257-0.257c0.107-0.063,0.228-0.097,0.359-0.098h2.141
			c0.132,0.001,0.252,0.035,0.359,0.098c0.108,0.064,0.192,0.148,0.257,0.257c0.063,0.107,0.097,0.227,0.098,0.359V11.444z"/>
			<path clip-path="url(#SVGID_2_)" fill="#FFFFFF" d="M69.837,8.751c-0.076-0.171-0.182-0.322-0.313-0.453
			c-0.133-0.132-0.284-0.235-0.455-0.31c-0.172-0.073-0.352-0.111-0.543-0.113h-2.141c-0.197,0.002-0.382,0.04-0.554,0.113
			c-0.172,0.074-0.324,0.177-0.453,0.306c-0.131,0.131-0.234,0.282-0.308,0.455c-0.073,0.171-0.111,0.356-0.112,0.554v2.141
			c0.001,0.2,0.038,0.385,0.11,0.557c0.073,0.173,0.176,0.323,0.306,0.454c0.131,0.131,0.281,0.232,0.454,0.306
			c0.172,0.072,0.356,0.109,0.557,0.11h2.141c0.198-0.001,0.384-0.039,0.556-0.112s0.322-0.177,0.454-0.307
			c0.13-0.13,0.231-0.281,0.306-0.454c0.073-0.172,0.112-0.356,0.113-0.554V9.303C69.953,9.107,69.913,8.923,69.837,8.751
			M69.239,11.444c-0.001,0.132-0.034,0.252-0.098,0.359c-0.063,0.106-0.147,0.192-0.256,0.257c-0.108,0.063-0.229,0.097-0.36,0.098
			h-2.141c-0.132-0.001-0.252-0.035-0.359-0.098c-0.106-0.064-0.192-0.15-0.257-0.257c-0.063-0.107-0.096-0.228-0.098-0.359V9.303
			c0.002-0.132,0.035-0.252,0.098-0.359c0.064-0.109,0.15-0.193,0.257-0.257c0.107-0.063,0.228-0.097,0.359-0.098h2.141
			c0.132,0.001,0.252,0.035,0.36,0.098c0.108,0.064,0.192,0.148,0.256,0.257c0.063,0.107,0.097,0.227,0.098,0.359V11.444z"/>
			<path clip-path="url(#SVGID_2_)" fill="#FFFFFF" d="M85.515,8.797c-0.076-0.171-0.182-0.322-0.313-0.453
			c-0.133-0.132-0.284-0.235-0.455-0.31c-0.172-0.073-0.352-0.111-0.543-0.113h-2.141c-0.197,0.002-0.382,0.04-0.554,0.113
			c-0.173,0.074-0.324,0.177-0.453,0.306c-0.131,0.131-0.234,0.282-0.308,0.455c-0.073,0.171-0.111,0.356-0.112,0.554v2.141
			c0.001,0.2,0.038,0.385,0.11,0.557c0.073,0.173,0.176,0.323,0.306,0.454c0.131,0.131,0.281,0.232,0.454,0.306
			c0.172,0.072,0.356,0.109,0.557,0.11h2.141c0.198-0.001,0.383-0.039,0.556-0.112c0.172-0.073,0.322-0.177,0.453-0.307
			s0.232-0.281,0.307-0.454c0.073-0.172,0.112-0.356,0.113-0.554V9.349C85.631,9.153,85.591,8.969,85.515,8.797 M84.917,11.49
			c-0.001,0.132-0.034,0.252-0.098,0.359c-0.063,0.106-0.147,0.192-0.257,0.257c-0.107,0.063-0.228,0.097-0.359,0.098h-2.141
			c-0.132-0.001-0.252-0.035-0.359-0.098c-0.106-0.064-0.192-0.15-0.257-0.257c-0.063-0.107-0.096-0.228-0.098-0.359V9.349
			c0.002-0.132,0.035-0.252,0.098-0.359c0.064-0.109,0.15-0.193,0.257-0.257c0.107-0.063,0.228-0.097,0.359-0.098h2.141
			c0.132,0.001,0.252,0.035,0.359,0.098c0.109,0.064,0.193,0.148,0.257,0.257c0.063,0.107,0.097,0.227,0.098,0.359V11.49z"/>
		</symbol>
		<!-- icon flower -->
		<symbol id="icon_flower">
			<defs>
			<rect id="SVGID_flower_1_" width="135.606" height="137.069"/>
			</defs>
			<clipPath id="SVGID_flower_2_">
			<use xlink:href="#SVGID_flower_1_"  overflow="visible"/>
			</clipPath>
			<path clip-path="url(#SVGID_flower_2_)" fill-rule="evenodd" clip-rule="evenodd" fill="#537611" d="M63.507,48.666
			c3.711,2.799,6.131,7.231,6.131,12.238c0-5.007,2.419-9.439,6.131-12.238c2.534-1.911,4.212-4.913,4.212-8.33
			c0-5.712-4.631-10.343-10.343-10.343c-5.712,0-10.342,4.631-10.342,10.343C59.296,43.753,60.974,46.755,63.507,48.666
			M79.353,50.15c0.645,4.603-0.778,9.448-4.318,12.988c3.54-3.54,8.385-4.963,12.989-4.317c3.142,0.44,6.452-0.496,8.868-2.913
			c4.039-4.039,4.039-10.587,0-14.626s-10.588-4.039-14.626-0.001C79.849,43.698,78.911,47.007,79.353,50.15 M97.838,58.192
			c-3.418,0-6.42,1.678-8.33,4.211c-2.8,3.712-7.231,6.131-12.238,6.131c5.007,0,9.438,2.419,12.238,6.132
			c1.909,2.532,4.912,4.211,8.33,4.211c5.711,0,10.342-4.632,10.342-10.343C108.18,62.822,103.549,58.192,97.838,58.192
			M88.023,78.249c-4.604,0.646-9.448-0.778-12.989-4.318c3.541,3.54,4.963,8.385,4.318,12.989c-0.441,3.143,0.496,6.451,2.912,8.867
			c4.039,4.039,10.588,4.039,14.627,0c4.039-4.038,4.039-10.588,0-14.626C94.476,78.744,91.165,77.808,88.023,78.249 M59.925,86.919
			c-0.646-4.604,0.777-9.448,4.317-12.989c-3.54,3.541-8.385,4.964-12.988,4.318c-3.143-0.441-6.452,0.495-8.868,2.912
			c-4.039,4.038-4.039,10.588,0,14.626c4.038,4.039,10.587,4.039,14.626,0C59.428,93.371,60.365,90.062,59.925,86.919 M49.771,74.666
			c2.799-3.712,7.231-6.13,12.237-6.13c-5.006,0-9.438-2.42-12.237-6.132c-1.911-2.533-4.914-4.211-8.33-4.211
			c-5.712,0-10.343,4.63-10.343,10.343c0,5.71,4.631,10.342,10.343,10.342C44.856,78.877,47.859,77.199,49.771,74.666 M51.254,58.82
			c4.603-0.645,9.448,0.779,12.988,4.319c-3.54-3.54-4.963-8.386-4.317-12.989c0.44-3.143-0.497-6.452-2.913-8.869
			c-4.039-4.038-10.588-4.038-14.626,0.001c-4.039,4.039-4.039,10.587,0,14.626C44.802,58.325,48.111,59.261,51.254,58.82
			M109.532,15.498l2.347,12.871c0.59,3.234,2.612,5.736,5.651,6.989l12.245,5.049c2.58,1.064,4.388,2.984,5.295,5.624
			c0.907,2.639,0.661,5.264-0.721,7.689l-6.477,11.368c-1.626,2.856-1.685,6.074-0.162,8.986l6.135,11.74
			c1.293,2.473,1.442,5.105,0.441,7.71c-1.002,2.606-2.878,4.459-5.495,5.428l-12.268,4.547c-3.082,1.142-5.195,3.568-5.901,6.778
			l-2.847,12.938c-0.599,2.725-2.176,4.838-4.618,6.189c-2.22,1.229-4.593,1.517-6.981,0.854c-0.191-0.054-0.35-0.119-0.522-0.217
			c-12.472-7.059-12.353-6.98-17.793-10.42c-0.032-0.02-0.059-0.036-0.09-0.059c-3.373-2.483-4.824-5.327-4.964-8.953
			c-0.001-0.014-0.001-0.024-0.001-0.038V86.733c0-1.854-1.518-3.371-3.371-3.371c-1.854,0-3.371,1.518-3.371,3.371v23.928
			c0,0.008,0,0.015,0.001,0.021c0.142,6.631,2.131,10.265,5.825,13.097c0.308,0.236,0.599,0.456,0.883,0.668
			c0.604,0.447,0.931,1.091,0.938,1.844c0.007,0.751-0.31,1.399-0.905,1.857l-9.038,6.959c-2.212,1.703-4.778,2.309-7.518,1.773
			c-2.739-0.534-4.89-2.061-6.299-4.47l-6.607-11.292c-1.659-2.836-4.417-4.495-7.701-4.635l-13.234-0.555
			c-2.789-0.118-5.144-1.303-6.899-3.474c-1.755-2.171-2.421-4.722-1.953-7.474l2.197-12.896c0.552-3.24-0.494-6.284-2.92-8.5
			l-9.779-8.934c-2.062-1.882-3.104-4.304-3.053-7.095c0.051-2.791,1.18-5.174,3.308-6.98l9.973-8.468
			c2.505-2.127,3.661-5.131,3.226-8.388l-1.75-13.13c-0.369-2.766,0.39-5.291,2.223-7.396c1.833-2.106,4.228-3.205,7.02-3.222
			l13.083-0.075c3.287-0.019,6.103-1.578,7.864-4.352l7.099-11.183c1.496-2.356,3.701-3.803,6.457-4.238
			c2.758-0.434,5.299,0.264,7.448,2.045l10.07,8.352c2.531,2.098,5.688,2.714,8.822,1.721L97.472,8.24
			c2.66-0.844,5.278-0.535,7.67,0.904C107.532,10.584,109.031,12.752,109.532,15.498"/>
		</symbol>

	</defs>
</svg>