<svg viewBox="0 0 493.332 493.332" xmlns="http://www.w3.org/2000/svg">
  <path d="M352.73 450.956c3.038 9.79-2.043 20.213-11.615 23.878-35.81 13.71-69.294 18.498-112.873 18.498-117.663 0-221.147-84.347-221.147-223.275C7.095 125.46 112.003 0 272.2 0c124.735 0 214.036 85.764 214.036 204.845 0 103.483-58.12 168.693-134.66 168.693-33.327 0-57.42-17.007-60.955-54.582h-1.42c-21.96 36.15-53.86 54.582-91.43 54.582-46.08 0-79.37-34.022-79.37-92.142 0-86.475 63.77-165.147 165.84-165.147 18.69 0 38.9 2.79 55.91 7.17 16.426 4.22 26.86 20.23 24.148 36.98L347.32 265.09c-7.072 41.818-2.112 60.953 17.72 61.666 30.476.71 68.763-38.273 68.763-119.787 0-92.15-59.543-163.73-169.41-163.73-108.444 0-203.43 85.05-203.43 220.43 0 118.37 75.836 185.71 181.45 185.71 27.49 0 56.203-4.51 80.853-13.216 5.863-2.07 12.315-1.66 17.872 1.126 5.558 2.79 9.753 7.717 11.595 13.656v.003zm-58.776-269.594c.534-3.626-1.892-7.027-5.496-7.696-4.413-.82-9.536-1.426-15.573-1.426-46.77 0-83.617 46.076-83.617 100.653 0 26.94 12.037 43.946 35.423 43.946 26.24 0 53.88-33.31 60.27-74.43l9-61.05z"/>
</svg>