<svg viewBox="0 0 512 512" xmlns="http://www.w3.org/2000/svg">
  <path d="M256 0C114.61 0 0 114.61 0 256s114.61 256 256 256 256-114.61 256-256S397.39 0 256 0zm0 472c-119.297 0-216-96.703-216-216S136.703 40 256 40s216 96.703 216 216-96.703 216-216 216z"/>
  <path d="M327.125 383.97c5.703.015 56.875-37.83 56.875-42.657s-57.266-40.905-62.22-40.905-21.577 19.938-26.06 22.155c-4.5 2.22-32.5 1.422-63.704-29.78-31.22-31.188-41.875-67.11-41.875-72.75 0-5.64 26.034-23.062 26.75-27.156.72-4.094-34.31-64.876-40-64.876S128 180.5 128 184.878s3.953 60.656 75.22 131.906 118.202 67.158 123.905 67.19z"/>
</svg>